# xmcd
#
# Track frame offsets:
#	150
#	12166
#	26835
#	41095
#	54604
#	66694
#	79930
#	91672
#	103763
#	117063
#	129406
#	144049
#	157865
#	172086
#	186464
#	200467
#	213427
#	228312
#	241785
#	255986
#	270093
#	285487
#	298433
#
# Disc length: 4157 seconds
#
# Revision: 1
# Processed by: cddbd v1.4PL0 Copyright (c) Steve Scherf et al.
# Submitted via: audiograbber 1.81.02
#
DISCID=45103b17
DTITLE=Allen Brothers - Complete Recorded Works In Chronological Order - vol. 2
DYEAR=1900
DGENRE=Country
TTITLE0=A New Salty Dog
TTITLE1=Preacher Blues
TTITLE2=When You Leave, You'll Leave Me Sad
TTITLE3=Chattanooga Mama
TTITLE4=It's Too Bad For You
TTITLE5=Slide, Daddy, Slide
TTITLE6=Pile Drivin' Papa
TTITLE7=Shake It, Ida, Shake It
TTITLE8=Roll It Down
TTITLE9=Mother-In-Law Blues
TTITLE10=Unlucky Man
TTITLE11=Laughin' and Cryin'
TTITLE12=Monkey Blues
TTITLE13=Glorious Night Blues
TTITLE14=Inspiration
TTITLE15=Crossfiring Blues
TTITLE16=I'll Be Here a Long, Long Time
TTITLE17=It Can't Be Done
TTITLE18=Windowshade Blues
TTITLE19=Maybe Next Week Sometime No. 2
TTITLE20=Fruit Jar Blues
TTITLE21=Lightning Bug Blues
TTITLE22=Warm Knees Blues
EXTD=
EXTT0=
EXTT1=
EXTT2=
EXTT3=
EXTT4=
EXTT5=
EXTT6=
EXTT7=
EXTT8=
EXTT9=
EXTT10=
EXTT11=
EXTT12=
EXTT13=
EXTT14=
EXTT15=
EXTT16=
EXTT17=
EXTT18=
EXTT19=
EXTT20=
EXTT21=
EXTT22=
PLAYORDER=
